<svg xmlns="http://www.w3.org/2000/svg" xmlns:xlink="http://www.w3.org/1999/xlink" version="1.1" width="737.008" height="510.236" viewBox="0 0 737.008 510.236">
<defs>
<clipPath id="clip_0">
<path transform="matrix(1,0,0,-1,0,510.236)" d="M0 510.236H737.008V0H0Z"/>
</clipPath>
</defs>
<g id="layer_1" data-name="Layer 1">
<g clip-path="url(#clip_0)">
<path transform="matrix(1,0,0,-1,520.7578,206.3859)" d="M0 0C0-34.617-28.163-62.782-62.781-62.782-88.08-62.782-109.917-47.73-119.849-26.12-124.849-49.748-136.486-70.922-152.728-87.597-129.92-111.013-98.052-125.562-62.781-125.562 6.564-125.562 62.78-69.346 62.78 0Z" fill="#9e0521"/>
<path transform="matrix(1,0,0,-1,395.1953,174.9953)" d="M0 0V13.958C-11.552 43.769-34.152 68.068-62.781 81.832V0Z" fill="#9e0521"/>
<path transform="matrix(1,0,0,-1,395.1953,206.3859)" d="M0 0V0 .007 18.833H-57.226-63.5V0C-63.5-6.401-63.019-12.69-62.095-18.834H-57.226C-58.625-21.082-59.573-23.777-60.049-26.136-58.609-49.947-44.717-74.113-27.165-87.597-9.612-72.797 2.402-50.685 5.715-26.12 2.057-18.161 0-9.318 0 0" fill="#9e0521"/>
<path transform="matrix(1,0,0,-1,495.6475,206.3859)" d="M0 0C0-20.804-16.864-37.668-37.668-37.668-58.473-37.668-75.337-20.804-75.337 0-75.337 20.804-58.473 37.668-37.668 37.668-16.864 37.668 0 20.804 0 0" fill="#9e0521"/>
<path transform="matrix(1,0,0,-1,333.8208,224.50019)" d="M0 0C-.924 6.144-1.406 11.713-1.406 18.114V36.948H-18.073C-38.876 36.948-55.741 20.084-55.741-.72V-8.022H4.149V0Z" fill="#9e0521"/>
<path transform="matrix(1,0,0,-1,335.1465,232.5221)" d="M0 0C-9.933-21.604-31.772-36.646-57.067-36.646-91.685-36.646-119.848-8.481-119.848 26.137-119.848 60.754-91.685 88.917-57.067 88.917-41.032 88.917-26.392 82.867-15.288 72.937V144.573C-28.358 149.185-42.418 151.698-57.067 151.698-126.413 151.698-182.629 95.481-182.629 26.136-182.629-43.21-126.413-99.426-57.067-99.426-21.795-99.426 10.076-84.879 32.884-61.461 16.645-44.789 5.002-23.624 0 0" fill="#9e0521"/>
<path transform="matrix(1,0,0,-1,81.1973,402.1403)" d="M0 0C0 4.017-.371 7.215-1.11 9.595-1.852 11.973-2.868 13.769-4.163 14.984-5.458 16.199-6.965 16.979-8.682 17.323-10.399 17.666-12.237 17.839-14.191 17.839H-20.931V-18.075H-13.479C-11.523-18.075-9.712-17.838-8.048-17.362-6.383-16.887-4.955-15.988-3.767-14.666-2.577-13.346-1.653-11.509-.991-9.156-.331-6.806 0-3.753 0 0M10.306 .08C10.306-4.625 9.816-8.615 8.839-11.892 7.86-15.169 6.368-17.838 4.36-19.897 2.351-21.96-.187-23.454-3.251-24.378-6.316-25.304-9.964-25.766-14.191-25.766H-30.92V25.528H-14.191C-10.069 25.528-6.462 25.079-3.37 24.181-.278 23.281 2.271 21.828 4.28 19.82 6.289 17.812 7.795 15.183 8.8 11.933 9.803 8.682 10.306 4.73 10.306 .08" fill="#404041"/>
<path transform="matrix(1,0,0,-1,81.1973,402.1403)" stroke-width=".709" stroke-linecap="butt" stroke-miterlimit="10" stroke-linejoin="miter" fill="none" stroke="#bcbec0" d="M0 0C0 4.017-.371 7.215-1.11 9.595-1.852 11.973-2.868 13.769-4.163 14.984-5.458 16.199-6.965 16.979-8.682 17.323-10.399 17.666-12.237 17.839-14.191 17.839H-20.931V-18.075H-13.479C-11.523-18.075-9.712-17.838-8.048-17.362-6.383-16.887-4.955-15.988-3.767-14.666-2.577-13.346-1.653-11.509-.991-9.156-.331-6.806 0-3.753 0 0ZM10.306 .08C10.306-4.625 9.816-8.615 8.839-11.892 7.86-15.169 6.368-17.838 4.36-19.897 2.351-21.96-.187-23.454-3.251-24.378-6.316-25.304-9.964-25.766-14.191-25.766H-30.92V25.528H-14.191C-10.069 25.528-6.462 25.079-3.37 24.181-.278 23.281 2.271 21.828 4.28 19.82 6.289 17.812 7.795 15.183 8.8 11.933 9.803 8.682 10.306 4.73 10.306 .08Z"/>
<path transform="matrix(1,0,0,-1,108.3887,427.90589)" d="M0 0V51.294H30.443V43.604H9.989V30.364H28.779V22.674H9.989V7.69H31.157V0Z" fill="#404041"/>
<path transform="matrix(1,0,0,-1,108.3887,427.90589)" stroke-width=".709" stroke-linecap="butt" stroke-miterlimit="10" stroke-linejoin="miter" fill="none" stroke="#bcbec0" d="M0 0V51.294H30.443V43.604H9.989V30.364H28.779V22.674H9.989V7.69H31.157V0H0Z"/>
<path transform="matrix(1,0,0,-1,193.377,414.5866)" d="M0 0C0-3.118-.608-5.643-1.823-7.57-3.04-9.502-4.638-10.994-6.62-12.051-8.602-13.107-10.861-13.835-13.398-14.23-15.936-14.628-18.525-14.825-21.168-14.825-22.277-14.825-23.494-14.759-24.814-14.628-26.137-14.495-27.484-14.311-28.858-14.071-30.233-13.835-31.581-13.568-32.901-13.279-34.223-12.99-35.438-12.686-36.548-12.368L-33.456-3.964C-31.554-4.705-29.546-5.419-27.431-6.104-25.317-6.792-23.203-7.136-21.089-7.136-19.503-7.136-18.036-7.044-16.688-6.857-15.341-6.674-14.179-6.33-13.2-5.827-12.223-5.325-11.47-4.611-10.94-3.687-10.413-2.763-10.147-1.586-10.147-.159-10.147 1.215-10.505 2.378-11.218 3.329-11.932 4.281-12.871 5.113-14.032 5.827-15.195 6.54-16.544 7.187-18.076 7.771-19.609 8.352-21.168 8.958-22.753 9.594-24.445 10.228-26.123 10.953-27.788 11.772-29.452 12.593-30.933 13.583-32.228 14.746-33.523 15.908-34.566 17.31-35.359 18.947-36.151 20.585-36.548 22.567-36.548 24.895-36.548 27.432-35.953 29.599-34.765 31.396-33.575 33.19-32.029 34.646-30.126 35.755-28.224 36.865-26.097 37.685-23.744 38.213-21.394 38.74-19.027 39.006-16.648 39.006-15.804 39.006-14.76 38.952-13.518 38.847-12.276 38.74-10.994 38.597-9.672 38.411-8.352 38.227-7.044 38.001-5.748 37.737-4.453 37.473-3.277 37.155-2.22 36.786L-5.312 28.382C-6.792 29.018-8.471 29.663-10.346 30.324-12.223 30.984-14.403 31.315-16.887 31.315-18.737 31.315-20.283 31.117-21.524 30.722-22.767 30.324-23.744 29.821-24.458 29.216-25.172 28.606-25.675 27.919-25.964 27.153-26.255 26.387-26.4 25.633-26.4 24.895-26.4 23.836-26.123 22.951-25.567 22.238-25.013 21.524-24.26 20.876-23.309 20.296-22.357 19.713-21.261 19.187-20.019 18.71-18.777 18.234-17.469 17.76-16.094 17.283-14.244 16.648-12.368 15.908-10.465 15.063-8.563 14.217-6.832 13.146-5.272 11.854-3.714 10.558-2.445 8.958-1.467 7.057-.489 5.153 0 2.801 0 0" fill="#404041"/>
<path transform="matrix(1,0,0,-1,193.377,414.5866)" stroke-width=".709" stroke-linecap="butt" stroke-miterlimit="10" stroke-linejoin="miter" fill="none" stroke="#bcbec0" d="M0 0C0-3.118-.608-5.643-1.823-7.57-3.04-9.502-4.638-10.994-6.62-12.051-8.602-13.107-10.861-13.835-13.398-14.23-15.936-14.628-18.525-14.825-21.168-14.825-22.277-14.825-23.494-14.759-24.814-14.628-26.137-14.495-27.484-14.311-28.858-14.071-30.233-13.835-31.581-13.568-32.901-13.279-34.223-12.99-35.438-12.686-36.548-12.368L-33.456-3.964C-31.554-4.705-29.546-5.419-27.431-6.104-25.317-6.792-23.203-7.136-21.089-7.136-19.503-7.136-18.036-7.044-16.688-6.857-15.341-6.674-14.179-6.33-13.2-5.827-12.223-5.325-11.47-4.611-10.94-3.687-10.413-2.763-10.147-1.586-10.147-.159-10.147 1.215-10.505 2.378-11.218 3.329-11.932 4.281-12.871 5.113-14.032 5.827-15.195 6.54-16.544 7.187-18.076 7.771-19.609 8.352-21.168 8.958-22.753 9.594-24.445 10.228-26.123 10.953-27.788 11.772-29.452 12.593-30.933 13.583-32.228 14.746-33.523 15.908-34.566 17.31-35.359 18.947-36.151 20.585-36.548 22.567-36.548 24.895-36.548 27.432-35.953 29.599-34.765 31.396-33.575 33.19-32.029 34.646-30.126 35.755-28.224 36.865-26.097 37.685-23.744 38.213-21.394 38.74-19.027 39.006-16.648 39.006-15.804 39.006-14.76 38.952-13.518 38.847-12.276 38.74-10.994 38.597-9.672 38.411-8.352 38.227-7.044 38.001-5.748 37.737-4.453 37.473-3.277 37.155-2.22 36.786L-5.312 28.382C-6.792 29.018-8.471 29.663-10.346 30.324-12.223 30.984-14.403 31.315-16.887 31.315-18.737 31.315-20.283 31.117-21.524 30.722-22.767 30.324-23.744 29.821-24.458 29.216-25.172 28.606-25.675 27.919-25.964 27.153-26.255 26.387-26.4 25.633-26.4 24.895-26.4 23.836-26.123 22.951-25.567 22.238-25.013 21.524-24.26 20.876-23.309 20.296-22.357 19.713-21.261 19.187-20.019 18.71-18.777 18.234-17.469 17.76-16.094 17.283-14.244 16.648-12.368 15.908-10.465 15.063-8.563 14.217-6.832 13.146-5.272 11.854-3.714 10.558-2.445 8.958-1.467 7.057-.489 5.153 0 2.801 0 0Z"/>
<path transform="matrix(1,0,0,-1,0,510.236)" d="M210.104 133.624H220.093V82.329998H210.104Z" fill="#404041"/>
<path transform="matrix(1,0,0,-1,0,510.236)" stroke-width=".709" stroke-linecap="butt" stroke-miterlimit="10" stroke-linejoin="miter" fill="none" stroke="#bcbec0" d="M210.104 133.624H220.093V82.329998H210.104Z"/>
<path transform="matrix(1,0,0,-1,273.1641,426.8356)" d="M0 0C-1.244-.555-2.542-1.03-3.892-1.427-5.242-1.822-6.699-2.113-8.261-2.299-9.824-2.483-11.559-2.576-13.464-2.576-18.177-2.576-22.069-1.81-25.14-.277-28.212 1.255-30.635 3.29-32.409 5.827-34.183 8.364-35.414 11.258-36.104 14.508-36.792 17.759-37.135 21.128-37.135 24.616-37.135 28.58-36.673 32.188-35.748 35.438-34.823 38.688-33.383 41.489-31.427 43.842-29.472 46.193-26.947 48.018-23.855 49.313-20.764 50.606-17.077 51.255-12.796 51.255-11.897 51.255-10.894 51.188-9.783 51.057-8.674 50.924-7.537 50.767-6.374 50.581-5.212 50.396-4.062 50.171-2.926 49.907-1.79 49.643-.772 49.404 .127 49.193L-2.965 40.79C-4.499 41.477-6.07 42.11-7.683 42.692-9.295 43.273-10.973 43.564-12.717 43.564-14.778 43.564-16.681 43.273-18.425 42.692-20.169 42.11-21.663 41.106-22.904 39.681-24.146 38.253-25.111 36.312-25.798 33.854-26.485 31.396-26.828 28.315-26.828 24.616-26.828 21.497-26.618 18.736-26.194 16.332-25.771 13.927-25.045 11.893-24.014 10.229-22.983 8.563-21.596 7.294-19.852 6.422-18.107 5.55-15.915 5.113-13.271 5.113-11.422 5.113-9.902 5.259-8.713 5.55-7.523 5.84-6.322 6.354-5.105 7.097V18.671H-16.442V26.36H3.853V2.021C2.528 1.229 1.244 .556 0 0" fill="#404041"/>
<path transform="matrix(1,0,0,-1,273.1641,426.8356)" stroke-width=".709" stroke-linecap="butt" stroke-miterlimit="10" stroke-linejoin="miter" fill="none" stroke="#bcbec0" d="M0 0C-1.244-.555-2.542-1.03-3.892-1.427-5.242-1.822-6.699-2.113-8.261-2.299-9.824-2.483-11.559-2.576-13.464-2.576-18.177-2.576-22.069-1.81-25.14-.277-28.212 1.255-30.635 3.29-32.409 5.827-34.183 8.364-35.414 11.258-36.104 14.508-36.792 17.759-37.135 21.128-37.135 24.616-37.135 28.58-36.673 32.188-35.748 35.438-34.823 38.688-33.383 41.489-31.427 43.842-29.472 46.193-26.947 48.018-23.855 49.313-20.764 50.606-17.077 51.255-12.796 51.255-11.897 51.255-10.894 51.188-9.783 51.057-8.674 50.924-7.537 50.767-6.374 50.581-5.212 50.396-4.062 50.171-2.926 49.907-1.79 49.643-.772 49.404 .127 49.193L-2.965 40.79C-4.499 41.477-6.07 42.11-7.683 42.692-9.295 43.273-10.973 43.564-12.717 43.564-14.778 43.564-16.681 43.273-18.425 42.692-20.169 42.11-21.663 41.106-22.904 39.681-24.146 38.253-25.111 36.312-25.798 33.854-26.485 31.396-26.828 28.315-26.828 24.616-26.828 21.497-26.618 18.736-26.194 16.332-25.771 13.927-25.045 11.893-24.014 10.229-22.983 8.563-21.596 7.294-19.852 6.422-18.107 5.55-15.915 5.113-13.271 5.113-11.422 5.113-9.902 5.259-8.713 5.55-7.523 5.84-6.322 6.354-5.105 7.097V18.671H-16.442V26.36H3.853V2.021C2.528 1.229 1.244 .556 0 0Z"/>
<path transform="matrix(1,0,0,-1,321.5703,427.90589)" d="M0 0-18.234 39.481V0H-27.748V51.294H-12.923L5.153 11.813V51.294H14.984V0Z" fill="#404041"/>
<path transform="matrix(1,0,0,-1,321.5703,427.90589)" stroke-width=".709" stroke-linecap="butt" stroke-miterlimit="10" stroke-linejoin="miter" fill="none" stroke="#bcbec0" d="M0 0-18.234 39.481V0H-27.748V51.294H-12.923L5.153 11.813V51.294H14.984V0H0Z"/>
<path transform="matrix(1,0,0,-1,400.2148,388.2663)" d="M0 0C0 .793-.079 1.547-.236 2.261-.396 2.975-.687 3.62-1.108 4.202-1.532 4.783-2.113 5.245-2.854 5.59-3.595 5.934-4.546 6.105-5.707 6.105-7.717 6.105-9.116 5.483-9.909 4.242-10.701 2.999-11.099 1.479-11.099-.315-11.099-1.108-10.939-1.837-10.622-2.497-10.306-3.158-9.923-3.766-9.474-4.319-9.024-4.875-8.562-5.363-8.085-5.787-7.609-6.211-7.187-6.606-6.816-6.977-6.024-6.606-5.22-6.211-4.398-5.787-3.58-5.363-2.842-4.875-2.18-4.319-1.52-3.766-.989-3.131-.595-2.418-.197-1.704 0-.897 0 0M5.551-39.64 4.281-36.128C3.807-36.755 3.197-37.354 2.458-37.93 1.718-38.505 .912-39.016 .04-39.459-.832-39.9-1.73-40.254-2.654-40.517-3.58-40.775-4.438-40.907-5.231-40.907-7.24-40.907-9.224-40.655-11.178-40.155-13.134-39.654-14.892-38.797-16.449-37.583-18.01-36.369-19.265-34.772-20.216-32.794-21.166-30.813-21.644-28.32-21.644-25.312-21.644-24.151-21.537-22.898-21.325-21.553-21.114-20.207-20.704-18.888-20.098-17.595-19.489-16.302-18.631-15.062-17.521-13.874-16.41-12.687-14.932-11.618-13.08-10.668-13.662-10.246-14.35-9.73-15.143-9.124-15.935-8.518-16.687-7.805-17.4-6.987-18.114-6.17-18.736-5.231-19.265-4.177-19.794-3.121-20.058-1.881-20.058-.455-20.058 1.338-19.794 3.04-19.265 4.65-18.736 6.261-17.891 7.672-16.728 8.887-15.564 10.101-14.071 11.063-12.247 11.774-10.425 12.487-8.191 12.845-5.549 12.845-.95 12.845 2.616 11.761 5.153 9.594 7.69 7.426 8.96 4.175 8.96-.157 8.96-1.744 8.511-3.198 7.611-4.519 6.713-5.84 5.591-7.029 4.242-8.086 2.896-9.144 1.414-10.096-.197-10.939-1.811-11.786-3.355-12.524-4.836-13.16-7.638-14.377-9.605-15.923-10.741-17.798-11.879-19.675-12.445-22.146-12.445-25.211-12.445-26.269-12.314-27.325-12.053-28.382-11.789-29.438-11.354-30.392-10.751-31.236-10.146-32.082-9.316-32.782-8.266-33.337-7.214-33.892-5.897-34.169-4.319-34.169-2.639-34.169-1.15-33.624 .138-32.532 1.426-31.441 2.596-30.205 3.647-28.82V-22.515H-3.249V-16.173H12.605V-28.54C12.605-29.438 12.673-30.431 12.805-31.514 12.937-32.598 13.083-33.653 13.24-34.685 13.398-35.715 13.544-36.667 13.677-37.539 13.809-38.411 13.9-39.111 13.954-39.64Z" fill="#404041"/>
<path transform="matrix(1,0,0,-1,400.2148,388.2663)" stroke-width=".709" stroke-linecap="butt" stroke-miterlimit="10" stroke-linejoin="miter" fill="none" stroke="#bcbec0" d="M0 0C0 .793-.079 1.547-.236 2.261-.396 2.975-.687 3.62-1.108 4.202-1.532 4.783-2.113 5.245-2.854 5.59-3.595 5.934-4.546 6.105-5.707 6.105-7.717 6.105-9.116 5.483-9.909 4.242-10.701 2.999-11.099 1.479-11.099-.315-11.099-1.108-10.939-1.837-10.622-2.497-10.306-3.158-9.923-3.766-9.474-4.319-9.024-4.875-8.562-5.363-8.085-5.787-7.609-6.211-7.187-6.606-6.816-6.977-6.024-6.606-5.22-6.211-4.398-5.787-3.58-5.363-2.842-4.875-2.18-4.319-1.52-3.766-.989-3.131-.595-2.418-.197-1.704 0-.897 0 0ZM5.551-39.64 4.281-36.128C3.807-36.755 3.197-37.354 2.458-37.93 1.718-38.505 .912-39.016 .04-39.459-.832-39.9-1.73-40.254-2.654-40.517-3.58-40.775-4.438-40.907-5.231-40.907-7.24-40.907-9.224-40.655-11.178-40.155-13.134-39.654-14.892-38.797-16.449-37.583-18.01-36.369-19.265-34.772-20.216-32.794-21.166-30.813-21.644-28.32-21.644-25.312-21.644-24.151-21.537-22.898-21.325-21.553-21.114-20.207-20.704-18.888-20.098-17.595-19.489-16.302-18.631-15.062-17.521-13.874-16.41-12.687-14.932-11.618-13.08-10.668-13.662-10.246-14.35-9.73-15.143-9.124-15.935-8.518-16.687-7.805-17.4-6.987-18.114-6.17-18.736-5.231-19.265-4.177-19.794-3.121-20.058-1.881-20.058-.455-20.058 1.338-19.794 3.04-19.265 4.65-18.736 6.261-17.891 7.672-16.728 8.887-15.564 10.101-14.071 11.063-12.247 11.774-10.425 12.487-8.191 12.845-5.549 12.845-.95 12.845 2.616 11.761 5.153 9.594 7.69 7.426 8.96 4.175 8.96-.157 8.96-1.744 8.511-3.198 7.611-4.519 6.713-5.84 5.591-7.029 4.242-8.086 2.896-9.144 1.414-10.096-.197-10.939-1.811-11.786-3.355-12.524-4.836-13.16-7.638-14.377-9.605-15.923-10.741-17.798-11.879-19.675-12.445-22.146-12.445-25.211-12.445-26.269-12.314-27.325-12.053-28.382-11.789-29.438-11.354-30.392-10.751-31.236-10.146-32.082-9.316-32.782-8.266-33.337-7.214-33.892-5.897-34.169-4.319-34.169-2.639-34.169-1.15-33.624 .138-32.532 1.426-31.441 2.596-30.205 3.647-28.82V-22.515H-3.249V-16.173H12.605V-28.54C12.605-29.438 12.673-30.431 12.805-31.514 12.937-32.598 13.083-33.653 13.24-34.685 13.398-35.715 13.544-36.667 13.677-37.539 13.809-38.411 13.9-39.111 13.954-39.64H5.551Z"/>
<path transform="matrix(1,0,0,-1,482.1113,391.99189)" d="M0 0C0 1.744-.237 3.132-.714 4.162-1.189 5.192-1.812 5.973-2.576 6.501-3.344 7.028-4.216 7.359-5.192 7.492-6.171 7.623-7.162 7.69-8.166 7.69H-16.016V-8.166H-7.771C-6.713-8.166-5.708-8.035-4.758-7.77-3.807-7.506-2.974-7.068-2.261-6.462-1.546-5.854-.991-5.021-.596-3.964-.198-2.906 0-1.586 0 0M10.147 0C10.147-2.906 9.725-5.365 8.88-7.373 8.032-9.383 6.857-11.021 5.352-12.288 3.846-13.557 2.033-14.469-.079-15.022-2.193-15.579-4.547-15.855-7.136-15.855H-16.016V-35.914H-26.005V15.38H-8.008C-5.418 15.38-3.014 15.129-.793 14.627 1.427 14.124 3.355 13.279 4.995 12.09 6.633 10.901 7.9 9.315 8.8 7.333 9.697 5.353 10.147 2.906 10.147 0" fill="#404041"/>
<path transform="matrix(1,0,0,-1,482.1113,391.99189)" stroke-width=".709" stroke-linecap="butt" stroke-miterlimit="10" stroke-linejoin="miter" fill="none" stroke="#bcbec0" d="M0 0C0 1.744-.237 3.132-.714 4.162-1.189 5.192-1.812 5.973-2.576 6.501-3.344 7.028-4.216 7.359-5.192 7.492-6.171 7.623-7.162 7.69-8.166 7.69H-16.016V-8.166H-7.771C-6.713-8.166-5.708-8.035-4.758-7.77-3.807-7.506-2.974-7.068-2.261-6.462-1.546-5.854-.991-5.021-.596-3.964-.198-2.906 0-1.586 0 0ZM10.147 0C10.147-2.906 9.725-5.365 8.88-7.373 8.032-9.383 6.857-11.021 5.352-12.288 3.846-13.557 2.033-14.469-.079-15.022-2.193-15.579-4.547-15.855-7.136-15.855H-16.016V-35.914H-26.005V15.38H-8.008C-5.418 15.38-3.014 15.129-.793 14.627 1.427 14.124 3.355 13.279 4.995 12.09 6.633 10.901 7.9 9.315 8.8 7.333 9.697 5.353 10.147 2.906 10.147 0Z"/>
<path transform="matrix(1,0,0,-1,534.832,391.4372)" d="M0 0C0 2.167-.543 3.897-1.625 5.193-2.709 6.487-4.439 7.137-6.818 7.137H-16.411V-7.452H-6.738C-4.413-7.452-2.709-6.752-1.625-5.352-.543-3.951 0-2.168 0 0M1.427-36.469-14.191-15.143H-16.411V-36.469H-26.4V14.825H-7.215C-5.153 14.825-3.093 14.627-1.03 14.23 1.029 13.835 2.894 13.081 4.559 11.972 6.224 10.861 7.57 9.342 8.602 7.413 9.633 5.482 10.147 3.014 10.147 0 10.147-1.744 9.937-3.423 9.514-5.034 9.09-6.646 8.391-8.112 7.413-9.435 6.435-10.756 5.126-11.892 3.487-12.843 1.85-13.795-.158-14.456-2.537-14.825L13.637-36.469Z" fill="#404041"/>
<path transform="matrix(1,0,0,-1,534.832,391.4372)" stroke-width=".709" stroke-linecap="butt" stroke-miterlimit="10" stroke-linejoin="miter" fill="none" stroke="#bcbec0" d="M0 0C0 2.167-.543 3.897-1.625 5.193-2.709 6.487-4.439 7.137-6.818 7.137H-16.411V-7.452H-6.738C-4.413-7.452-2.709-6.752-1.625-5.352-.543-3.951 0-2.168 0 0ZM1.427-36.469-14.191-15.143H-16.411V-36.469H-26.4V14.825H-7.215C-5.153 14.825-3.093 14.627-1.03 14.23 1.029 13.835 2.894 13.081 4.559 11.972 6.224 10.861 7.57 9.342 8.602 7.413 9.633 5.482 10.147 3.014 10.147 0 10.147-1.744 9.937-3.423 9.514-5.034 9.09-6.646 8.391-8.112 7.413-9.435 6.435-10.756 5.126-11.892 3.487-12.843 1.85-13.795-.158-14.456-2.537-14.825L13.637-36.469H1.427Z"/>
<path transform="matrix(1,0,0,-1,0,510.236)" d="M563.134 133.624H573.123V82.329998H563.134Z" fill="#404041"/>
<path transform="matrix(1,0,0,-1,0,510.236)" stroke-width=".709" stroke-linecap="butt" stroke-miterlimit="10" stroke-linejoin="miter" fill="none" stroke="#bcbec0" d="M563.134 133.624H573.123V82.329998H563.134Z"/>
<path transform="matrix(1,0,0,-1,619.582,427.90589)" d="M0 0-18.234 39.481V0H-27.748V51.294H-12.924L5.152 11.813V51.294H14.983V0Z" fill="#404041"/>
<path transform="matrix(1,0,0,-1,619.582,427.90589)" stroke-width=".709" stroke-linecap="butt" stroke-miterlimit="10" stroke-linejoin="miter" fill="none" stroke="#bcbec0" d="M0 0-18.234 39.481V0H-27.748V51.294H-12.924L5.152 11.813V51.294H14.983V0H0Z"/>
<path transform="matrix(1,0,0,-1,672.6191,384.3815)" d="M0 0V-43.523H-9.988V0H-24.102V7.771H14.111V0Z" fill="#404041"/>
<path transform="matrix(1,0,0,-1,672.6191,384.3815)" stroke-width=".709" stroke-linecap="butt" stroke-miterlimit="10" stroke-linejoin="miter" fill="none" stroke="#bcbec0" d="M0 0V-43.523H-9.988V0H-24.102V7.771H14.111V0H0Z"/>
</g>
</g>
</svg>
